<?xml version="1.0" encoding="UTF-8"?><svg id="Layer_1" xmlns="http://www.w3.org/2000/svg" viewBox="0 0 80 80"><defs><style>.cls-1{fill:#d7d7d7;}</style></defs><path class="cls-1" d="m51.83,33.04c0,2.74-.15,5.37-.41,7.89h-22.84c-.27-2.51-.41-5.15-.41-7.89s.15-5.37.41-7.89h22.84c.27,2.51.41,5.15.41,7.89Zm3.55-7.89h15.17c.65,2.53,1,5.16,1,7.89s-.34,5.36-1,7.89h-15.17c.26-2.54.39-5.17.39-7.89s-.14-5.35-.39-7.89Zm13.87-3.94h-14.38c-1.23-7.87-3.67-14.46-6.81-18.68,9.65,2.55,17.5,9.55,21.18,18.68h.01Zm-18.37,0h-21.76c.75-4.48,1.91-8.45,3.33-11.67,1.29-2.91,2.74-5.01,4.13-6.35,1.38-1.31,2.53-1.7,3.43-1.7s2.05.39,3.43,1.7c1.39,1.33,2.83,3.44,4.13,6.35,1.43,3.2,2.59,7.17,3.33,11.67Zm-25.75,0h-14.38C14.45,12.08,22.28,5.08,31.94,2.53c-3.14,4.21-5.58,10.81-6.81,18.68h0Zm-15.67,3.94h15.17c-.26,2.54-.39,5.17-.39,7.89s.14,5.35.39,7.89h-15.17c-.65-2.53-1-5.16-1-7.89s.34-5.36,1-7.89Zm22.99,31.37c-1.43-3.2-2.58-7.17-3.33-11.66h21.76c-.75,4.48-1.91,8.45-3.33,11.66-1.29,2.91-2.74,5.01-4.13,6.35-1.38,1.32-2.53,1.71-3.43,1.71s-2.05-.39-3.43-1.7c-1.39-1.33-2.83-3.44-4.13-6.35h0Zm-7.32-11.66c1.23,7.87,3.67,14.46,6.81,18.68-9.66-2.55-17.5-9.55-21.19-18.68h14.38Zm44.12,0c-3.7,9.13-11.53,16.13-21.18,18.68,3.14-4.21,5.57-10.81,6.81-18.68h14.37Z"/></svg>